<svg width="558px" height="518px" viewBox="0 0 558 518" version="1.1" xmlns="http://www.w3.org/2000/svg" xmlns:xlink="http://www.w3.org/1999/xlink">
    <defs>
        <linearGradient x1="95.7757061%" y1="9.08845393%" x2="5.46431639%" y2="93.3800849%" id="linearGradient-1">
            <stop stop-color="#1C97D0" offset="0%"></stop>
            <stop stop-color="#3F8FD2" stop-opacity="0.430564991" offset="30.8638776%"></stop>
            <stop stop-color="#7A81D5" stop-opacity="0.332823822" offset="62.7303107%"></stop>
            <stop stop-color="#9B78D5" offset="100%"></stop>
        </linearGradient>
        <linearGradient x1="96.1255617%" y1="10.4101907%" x2="4.41571026%" y2="89.2978553%" id="linearGradient-2">
            <stop stop-color="#1C97D0" offset="0%"></stop>
            <stop stop-color="#0D92C9" stop-opacity="0.430989583" offset="31.4832755%"></stop>
            <stop stop-color="#0D92C9" stop-opacity="0.693699049" offset="62.337404%"></stop>
            <stop stop-color="#008DC2" offset="100%"></stop>
        </linearGradient>
        <linearGradient x1="50%" y1="4.29596935%" x2="50%" y2="98.222154%" id="linearGradient-3">
            <stop stop-color="#0065A1" offset="0%"></stop>
            <stop stop-color="#0F80BB" stop-opacity="0.522276947" offset="38.9362927%"></stop>
            <stop stop-color="#1C97D0" offset="100%"></stop>
        </linearGradient>
        <linearGradient x1="82.8436749%" y1="35.6694552%" x2="30.6259449%" y2="118.978009%" id="linearGradient-4">
            <stop stop-color="#0065A1" offset="0%"></stop>
            <stop stop-color="#009ECF" offset="36.1031804%"></stop>
            <stop stop-color="#C86DD7" offset="100%"></stop>
        </linearGradient>
        <linearGradient x1="-1.8787766%" y1="0%" x2="81.0933026%" y2="73.9529158%" id="linearGradient-5">
            <stop stop-color="#7C7FD4" offset="0%"></stop>
            <stop stop-color="#5A88D2" offset="100%"></stop>
        </linearGradient>
    </defs>
    <g id="Page-1" stroke="none" stroke-width="1" fill="none" fill-rule="evenodd">
        <g id="Final-logo-Copy" transform="translate(-201.000000, 0.000000)">
            <g id="Group-2" transform="translate(201.000000, 0.000000)">
                <path d="M127.210645,246.479106 L127.210645,246.479106 C130.954365,246.479106 134.032455,249.430565 134.189635,253.170985 L144.858708,507.064706 C145.007624,510.608485 142.255544,513.602006 138.711764,513.750922 C138.621935,513.754697 138.532036,513.756585 138.442128,513.756585 L138.442128,513.756585 C134.698408,513.756585 131.620317,510.805125 131.463138,507.064706 L120.794065,253.170985 C120.645149,249.627206 123.397229,246.633685 126.941009,246.484769 C127.030838,246.480994 127.120736,246.479106 127.210645,246.479106 Z" id="Rectangle-28-Copy-4" fill="#FFFFFF" transform="translate(132.826386, 380.117845) rotate(72.000000) translate(-132.826386, -380.117845) "></path>
                <path d="M127.210645,245.479106 L127.210645,245.479106 C130.954365,245.479106 134.032455,248.430565 134.189635,252.170985 L144.858708,506.064706 C145.007624,509.608485 142.255544,512.602006 138.711764,512.750922 C138.621935,512.754697 138.532036,512.756585 138.442128,512.756585 L138.442128,512.756585 C134.698408,512.756585 131.620317,509.805125 131.463138,506.064706 L120.794065,252.170985 C120.645149,248.627206 123.397229,245.633685 126.941009,245.484769 C127.030838,245.480994 127.120736,245.479106 127.210645,245.479106 Z" id="Rectangle-28-Copy-4" fill="url(#linearGradient-1)" opacity="0.833784412" transform="translate(132.826386, 379.117845) rotate(72.000000) translate(-132.826386, -379.117845) "></path>
                <path d="M375.294326,219.857547 L375.294326,219.857547 C379.142123,219.857547 382.408967,222.676884 382.971769,226.483299 L425.441491,513.720049 C425.908426,516.878083 423.726859,519.816701 420.568825,520.283635 C420.288906,520.325023 420.006326,520.345801 419.723364,520.345801 L419.723364,520.345801 C415.875567,520.345801 412.608723,517.526464 412.045921,513.720049 L369.5762,226.483299 C369.109265,223.325265 371.290832,220.386647 374.448866,219.919712 C374.728785,219.878325 375.011364,219.857547 375.294326,219.857547 Z" id="Rectangle-28-Copy-4" fill="#FFFFFF" transform="translate(397.508845, 370.101674) scale(-1, 1) rotate(-95.000000) translate(-397.508845, -370.101674) "></path>
                <path d="M375.294326,219.857547 L375.294326,219.857547 C379.142123,219.857547 382.408967,222.676884 382.971769,226.483299 L425.441491,513.720049 C425.908426,516.878083 423.726859,519.816701 420.568825,520.283635 C420.288906,520.325023 420.006326,520.345801 419.723364,520.345801 L419.723364,520.345801 C415.875567,520.345801 412.608723,517.526464 412.045921,513.720049 L369.5762,226.483299 C369.109265,223.325265 371.290832,220.386647 374.448866,219.919712 C374.728785,219.878325 375.011364,219.857547 375.294326,219.857547 Z" id="Rectangle-28-Copy-4" fill="url(#linearGradient-2)" opacity="0.494419643" transform="translate(397.508845, 370.101674) scale(-1, 1) rotate(-95.000000) translate(-397.508845, -370.101674) "></path>
                <path d="M252.809647,9 L252.809647,9 C256.57051,9 259.619293,12.0487826 259.619293,15.8096465 L259.619293,334.739701 C259.619293,338.500564 256.57051,341.549347 252.809647,341.549347 L252.809647,341.549347 C249.048783,341.549347 246,338.500564 246,334.739701 L246,15.8096465 C246,12.0487826 249.048783,9 252.809647,9 Z" id="Rectangle-28-Copy-8" fill="#FFFFFF"></path>
                <path d="M252.809647,9 L252.809647,9 C256.57051,9 259.619293,12.0487826 259.619293,15.8096465 L259.619293,334.739701 C259.619293,338.500564 256.57051,341.549347 252.809647,341.549347 L252.809647,341.549347 C249.048783,341.549347 246,338.500564 246,334.739701 L246,15.8096465 C246,12.0487826 249.048783,9 252.809647,9 Z" id="Rectangle-28-Copy-8" fill="url(#linearGradient-3)" opacity="0.494419643"></path>
                <g id="Group">
                    <g id="Group-12-Copy-3">
                        <path d="M90,435.01024 L90,248 C90,241.372583 95.372583,236 102,236 C103.967641,236 105.824674,236.473572 107.463336,237.312955 C195.346013,257.820981 245,303.219184 245,372.690735 C245,442.073088 203,477 147.5,472 C141.656658,471.473573 134.357314,467.692134 132.5,462 C133.23452,452.883622 139.901186,449.883622 152.5,453 C171.398221,457.674566 222.5,431 225,375 C227.415724,320.887774 188.164477,285.307833 114,263.70959 L114,336.48703 L114,450.026061 C114,456.653478 108.627417,462.026061 102,462.026061 C101.833833,462.026061 101.668455,462.022684 101.50393,462.015994 C100.120277,462.158152 98.6884727,462.06039 97.263734,461.690542 L10.6150279,439.19737 C9.7596025,438.975309 8.95013878,438.6657 8.19374482,438.280635 C3.50417565,437.229627 6.13141261e-16,433.041393 0,428.034714 L0,119.447624 C-5.99293555e-16,114.554021 3.34768046,110.442311 7.87784575,109.277688 C10.0136811,108.242065 12.5109592,107.921031 14.9942306,108.54018 L275.033485,173.375248 C280.66022,174.778151 284.084313,180.476798 282.68141,186.103533 L281.955645,189.01442 C280.552742,194.641155 274.854095,198.065248 269.22736,196.662345 L24,135.520298 L24,417.877273 L90,435.01024 Z M252.876848,24.9963122 L67.2034793,107.663422 C61.9058384,110.022084 55.6991789,107.63957 53.3405172,102.341929 L52.1203073,99.601293 C49.7616456,94.3036521 52.144159,88.0969926 57.4417998,85.7383309 L245.824543,1.86492986 C248.166525,0.377940559 251.089957,-0.183936806 253.994231,0.540179904 L549.778694,74.2875293 C555.405429,75.690432 558.829521,81.3890793 557.426619,87.0158144 L556.700853,89.9267015 C556.113251,92.2834441 554.772034,94.2537704 552.998135,95.644844 C552.064133,96.7151162 550.896545,97.6121715 549.526258,98.2511467 L322,204.348383 L322,466.5 C322,472.29899 317.29899,477 311.5,477 L308.5,477 C302.70101,477 298,472.29899 298,466.5 L298,198.5 C298,197.437005 298.157961,196.410903 298.45169,195.443888 C298.48893,191.525562 300.727986,187.786616 304.516232,186.020128 L511.533126,89.4865654 L252.876848,24.9963122 Z M539.135466,117.794275 L542.135466,117.794275 C547.934456,117.794275 552.635466,122.495285 552.635466,128.294275 L552.635466,399.5 C552.635466,405.29899 547.934456,410 542.135466,410 L539.135466,410 C533.336476,410 528.635466,405.29899 528.635466,399.5 L528.635466,128.294275 C528.635466,122.495285 533.336476,117.794275 539.135466,117.794275 Z M301.872299,509.225061 C301.833106,509.141012 301.795029,509.056447 301.758076,508.97139 C299.447416,503.652637 301.885957,497.467776 307.204709,495.157115 L502.478555,410.323022 C507.69793,408.055536 513.77364,410.358515 516.178608,415.515985 L517.443347,418.228225 C517.482539,418.312274 517.520617,418.396838 517.557569,418.481896 C519.868229,423.800649 517.429689,429.98551 512.110936,432.296171 L316.83709,517.130263 C311.617716,519.39775 305.542005,517.094771 303.137037,511.937301 L301.872299,509.225061 Z" id="Combined-Shape" fill="url(#linearGradient-4)"></path>
                        <path d="M224.720318,383.79879 L224.884682,383.79879 C231.447561,383.79879 236.793034,389.071046 236.88354,395.633301 L239.322554,572.475317 C239.412699,579.011337 234.187285,584.382905 227.651265,584.47305 C227.596861,584.473801 227.542452,584.474176 227.488043,584.474176 L227.488043,584.474176 C220.860626,584.474176 215.488043,579.101593 215.488043,572.474176 L215.488043,478.652167 L213.070317,395.793685 C212.882576,389.359567 217.946265,383.99149 224.380383,383.803749 C224.493665,383.800443 224.606989,383.79879 224.720318,383.79879 Z" id="Rectangle-28-Copy" fill="url(#linearGradient-5)" transform="translate(226.174281, 484.144447) rotate(-75.000000) translate(-226.174281, -484.144447) "></path>
                    </g>
                </g>
            </g>
        </g>
    </g>
</svg>